HIERARCHY
ROOT Hips
{
	OFFSET 0.000000 0.000000 0.000000 
	CHANNELS 6 Xposition Yposition Zposition Zrotation Yrotation Xrotation
	JOINT LeftUpLeg
	{
		OFFSET 1.363060 -1.794630 0.839290 
		CHANNELS 3 Zrotation Yrotation Xrotation
		JOINT LeftLeg
		{
			OFFSET 2.448110 -6.726130 0.000000 
			CHANNELS 3 Zrotation Yrotation Xrotation
			JOINT LeftFoot
			{
				OFFSET 2.562200 -7.039590 0.000000 
				CHANNELS 3 Zrotation Yrotation Xrotation
				JOINT LeftToeBase
				{
					OFFSET 0.157640 -0.433110 2.322550 
					CHANNELS 3 Zrotation Yrotation Xrotation
					End Site
					{
						OFFSET 0.000000 0.000000 0.000000 
					}
				}
			}
		}
	}
	JOINT RightUpLeg
	{
		OFFSET -1.305520 -1.794630 0.839290 
		CHANNELS 3 Zrotation Yrotation Xrotation
		JOINT RightLeg
		{
			OFFSET -2.542530 -6.985550 0.000000 
			CHANNELS 3 Zrotation Yrotation Xrotation
			JOINT RightFoot
			{
				OFFSET -2.568260 -7.056230 0.000000 
				CHANNELS 3 Zrotation Yrotation Xrotation
				JOINT RightToeBase
				{
					OFFSET -0.164730 -0.452590 2.363150 
					CHANNELS 3 Zrotation Yrotation Xrotation
					End Site
					{
						OFFSET 0.000000 0.000000 0.000000 
					}
				}
			}
		}
	}
	JOINT Spine
	{
		OFFSET 0.028270 2.035590 -0.193380 
		CHANNELS 3 Zrotation Yrotation Xrotation
		JOINT Spine1
		{
			OFFSET 0.056720 2.048850 -0.042750 
			CHANNELS 3 Zrotation Yrotation Xrotation
			JOINT Neck1
			{
				OFFSET -0.054170 1.746240 0.172020 
				CHANNELS 3 Zrotation Yrotation Xrotation
				JOINT Head
				{
					OFFSET 0.104070 1.761360 -0.123970 
					CHANNELS 3 Zrotation Yrotation Xrotation
					End Site
					{
						OFFSET 0.000000 0.000000 0.000000 
					}
				}
			}
			JOINT LeftArm
			{
				OFFSET 3.362410 1.200890 -0.311210 
				CHANNELS 3 Zrotation Yrotation Xrotation
				JOINT LeftForeArm
				{
					OFFSET 4.983000 -0.000000 -0.000000 
					CHANNELS 3 Zrotation Yrotation Xrotation
					JOINT LeftHand
					{
						OFFSET 3.483560 -0.000000 -0.000000 
						CHANNELS 3 Zrotation Yrotation Xrotation
						JOINT LeftHandIndex1
						{
							OFFSET 0.715260 -0.000000 -0.000000 
							CHANNELS 3 Zrotation Yrotation Xrotation
							End Site
							{
								OFFSET 0.000000 0.000000 0.000000 
							}
						}
					}
				}
			}
			JOINT RightArm
			{
				OFFSET -3.136600 1.374050 -0.404650 
				CHANNELS 3 Zrotation Yrotation Xrotation
				JOINT RightForeArm
				{
					OFFSET -5.241900 -0.000000 -0.000000 
					CHANNELS 3 Zrotation Yrotation Xrotation
					JOINT RightHand
					{
						OFFSET -3.444170 -0.000000 -0.000000 
						CHANNELS 3 Zrotation Yrotation Xrotation
						JOINT RightHandIndex1
						{
							OFFSET -0.622530 -0.000000 -0.000000 
							CHANNELS 3 Zrotation Yrotation Xrotation
							End Site
							{
								OFFSET 0.000000 0.000000 0.000000 
							}
						}
					}
				}
			}
		}
	}
}
MOTION
Frames: 18
Frame Time: 0.041667
8.210100 19.881347 20.475355 177.392387 -4.534188 -163.631749 -29.527052 -9.448965 4.913369 1.477947 6.693487 21.097517 0.013993 -10.910083 -7.572222 7.714000 -15.904800 -51.525900 13.938670 23.142802 -52.730022 -0.859229 -11.338638 27.280436 -0.246770 -7.701913 -6.631486 -4.652500 12.981400 -39.298900 1.612765 -2.614855 -3.671626 4.098078 -1.701880 3.163345 7.164464 -2.384872 24.261201 2.468000 0.070900 9.661400 -88.823867 -11.740709 33.236861 15.194618 -25.879188 -4.590992 0.314872 1.387868 17.655013 -7.125000 0.000000 0.000000 88.081046 -12.405133 -50.170241 0.979414 5.364887 -1.289493 -1.344869 -1.568656 50.668497 7.125000 0.000000 0.000000 
8.216430 20.009355 20.084035 177.722599 -4.140092 -163.258589 -29.341566 -9.350773 4.875556 1.639473 7.112996 22.363398 -0.060484 -8.869918 -5.756505 8.382200 -16.393300 -53.928000 14.936114 23.395782 -52.092936 -1.010850 -11.588783 28.140749 -0.242588 -6.848423 -7.141276 -3.600800 11.609300 -34.363500 1.684637 -2.539976 -3.716781 3.937552 -1.612015 2.971526 6.948313 -2.093518 23.581223 2.417200 0.114300 9.308800 -89.276319 -10.404392 32.478734 15.163559 -25.886823 -4.595269 0.263256 1.393520 17.232498 -7.125000 0.000000 0.000000 87.330235 -11.907469 -49.794670 0.990801 5.314819 -1.296236 -1.296653 -1.577328 51.071240 7.125000 0.000000 0.000000 
8.227804 20.149702 19.685097 177.816730 -3.734361 -162.921804 -29.392298 -9.150344 4.484444 1.918925 7.808249 24.449209 -0.152984 -3.879543 -0.876770 8.108800 -16.198700 -52.953600 16.003387 23.363725 -51.011205 -1.100360 -11.652905 28.497816 -0.242534 -5.976117 -7.474565 -3.393600 11.306600 -33.320900 1.743962 -2.545852 -3.799903 3.859529 -1.567066 2.678202 6.564555 -1.759105 23.081204 2.305300 0.183500 9.043200 -89.624280 -9.199422 31.690952 14.678288 -25.353138 -4.399171 0.237805 1.385206 16.895263 -7.125000 0.000000 0.000000 86.512628 -11.400485 -48.585006 1.026866 5.482294 -1.315494 -1.240342 -1.578549 50.950092 7.125000 0.000000 0.000000 
8.253770 20.286938 19.288412 177.822004 -3.597282 -162.506557 -29.267103 -9.146537 3.423847 2.406904 8.856450 27.633418 -0.073887 0.860132 3.221450 8.629700 -16.563500 -54.800600 16.929294 23.054944 -49.767350 -1.123461 -11.579422 28.421702 -0.257887 -4.840169 -8.866614 -2.983600 10.668500 -31.169700 1.805575 -2.615997 -3.866145 3.811936 -1.572007 2.601404 6.344938 -1.509356 22.669341 2.266400 0.230000 8.833200 -89.662139 -8.360196 31.518797 13.800922 -24.344315 -4.030720 0.247006 1.361393 16.487229 -7.125000 0.000000 0.000000 85.807446 -10.803142 -46.069143 1.133639 5.952052 -1.327281 -1.176318 -1.549769 49.691379 7.125000 0.000000 0.000000 
8.288428 20.414195 18.899668 177.937334 -3.680461 -162.117536 -28.860450 -9.370601 1.893069 3.161829 10.185463 31.842412 0.076314 3.447626 6.357932 8.534100 -16.498400 -54.464300 18.032911 22.568818 -48.424354 -1.131597 -11.433607 28.191931 -0.248761 -4.251470 -8.317817 -2.938400 10.594700 -30.924800 1.902253 -2.715843 -3.965522 3.900031 -1.578837 2.428693 6.256000 -1.336742 22.200442 2.272200 0.252100 8.591200 -89.578799 -7.408434 31.911229 12.911427 -23.313347 -3.665501 0.279401 1.330655 16.175226 -7.125000 0.000000 0.000000 85.056775 -10.411945 -41.579643 1.250798 6.991667 -1.377932 -1.052129 -1.585958 46.361450 7.125000 0.000000 0.000000 
8.324266 20.519455 18.518327 177.929853 -3.822440 -161.703349 -28.590257 -9.763238 0.103409 4.104541 11.623426 36.657656 0.348929 6.878843 9.750547 9.095400 -16.868700 -56.419400 19.128206 21.716993 -47.178928 -1.148699 -11.304261 27.982915 -0.257194 -2.992462 -8.993963 -2.698700 10.190500 -29.596000 1.984785 -2.799890 -4.066992 4.062427 -1.581615 2.315915 6.454133 -1.255253 21.495404 2.395600 0.235700 8.200700 -89.621723 -6.529823 32.014061 12.029663 -22.281833 -3.334509 0.329971 1.296780 16.893323 -7.125000 0.000000 0.000000 84.283971 -9.955038 -36.754046 1.194608 8.295797 -1.461702 -0.884733 -1.666194 42.492368 7.125000 0.000000 0.000000 
8.360640 20.618922 18.144604 177.917715 -3.705705 -161.757795 -28.494693 -9.769795 -1.514678 5.139399 12.987526 41.597303 0.688302 11.567538 12.955947 10.097800 -17.464500 -59.814600 20.478462 20.841557 -45.408330 -1.187994 -11.147081 27.822124 -0.242691 -2.038386 -8.766490 -2.792900 10.352000 -30.124200 2.009142 -2.668755 -4.103326 4.229482 -1.488416 2.142578 7.170460 -1.346718 20.598790 2.783000 0.137600 7.683700 -89.745407 -5.888592 31.798408 11.156334 -21.229161 -3.026109 0.393365 1.256719 18.544525 -7.125000 0.000000 0.000000 83.583565 -9.321572 -32.663050 1.000699 9.505366 -1.548850 -0.730704 -1.727402 39.278774 7.125000 0.000000 0.000000 
8.395405 20.718924 17.778392 178.309794 -3.129998 -162.179514 -28.064985 -9.099639 -3.382776 6.269417 14.263396 46.487933 0.523531 14.082963 11.102975 10.747800 -17.809400 -61.959800 22.280259 20.416345 -43.032108 -1.202843 -10.895849 27.499188 -0.237303 -0.948419 -9.072914 -2.795200 10.355900 -30.137100 1.982850 -2.233613 -4.113663 4.049755 -1.277033 1.961799 6.207034 -1.234098 21.305164 2.235100 0.250200 8.167800 -89.654459 -5.153358 31.772249 10.420152 -20.331462 -2.784923 0.449420 1.225073 20.326485 -7.125000 0.000000 0.000000 83.105556 -8.527201 -29.129730 0.791791 10.560056 -1.636390 -0.628241 -1.775612 36.508757 7.125000 0.000000 0.000000 
8.453991 20.817639 17.468619 178.523507 -3.111107 -162.239099 -27.469519 -9.158442 -6.411570 7.610078 15.531578 51.559786 0.249426 11.629150 6.480910 10.003900 -17.412100 -59.501500 23.612747 19.992717 -41.111193 -1.161068 -10.596963 26.952666 -0.249889 -0.405188 -9.623677 -2.713500 10.216100 -29.679400 1.986301 -2.043290 -4.202288 4.107894 -1.148473 1.471819 6.464533 -1.448281 20.964236 2.364800 0.136700 7.969500 -89.498330 -4.375949 31.439693 9.917649 -19.718253 -2.643475 0.483387 1.211866 22.250601 -7.125000 0.000000 0.000000 82.604349 -7.317964 -25.842935 0.599437 11.452156 -1.724433 -0.571559 -1.804068 34.162825 7.125000 0.000000 0.000000 
8.496910 20.919896 17.137172 178.773403 -2.390632 -162.722278 -27.150921 -8.522159 -8.689867 8.581792 16.313747 54.980388 0.138931 8.953734 3.167452 9.842600 -17.320400 -58.960800 25.190295 19.814839 -38.359632 -1.090014 -10.116145 26.028395 -0.249849 0.395676 -9.872345 -2.622800 10.057900 -29.164300 1.923859 -1.677428 -4.143644 4.007667 -0.992255 1.449101 6.408296 -1.386584 21.131058 2.362500 0.167700 8.124200 -89.351600 -3.611270 30.652296 9.585911 -19.309753 -2.557377 0.499478 1.204298 24.006525 -7.125000 0.000000 0.000000 81.995287 -5.636555 -22.673830 0.314366 12.378518 -1.826239 -0.527160 -1.817267 32.247384 7.125000 0.000000 0.000000 
8.542405 21.025907 16.814738 178.999341 -1.696841 -163.007737 -26.789871 -8.359367 -11.201863 9.334868 16.908931 57.588283 0.088751 7.192844 0.485771 9.770800 -17.279000 -58.719600 26.639993 19.623618 -35.787115 -0.992741 -9.584661 24.931336 -0.250823 1.120318 -10.093509 -2.622900 10.058000 -29.164700 1.850622 -1.327819 -4.124055 3.868427 -0.829095 1.408103 6.433982 -1.394565 21.247176 2.389900 0.173400 8.191500 -89.125715 -2.727923 29.743705 9.336766 -19.009345 -2.499388 0.506999 1.201392 24.859820 -7.125000 0.000000 0.000000 81.587928 -3.927874 -19.576617 -0.228491 13.610907 -1.979777 -0.484370 -1.839897 30.316630 7.125000 0.000000 0.000000 
8.587471 21.131704 16.498206 179.177682 -1.285294 -163.004252 -26.383631 -8.731862 -14.373023 9.949035 17.422705 59.693921 0.078484 5.352832 -2.384103 9.960800 -17.387700 -59.357100 27.868712 19.105261 -33.613708 -0.895493 -9.060619 23.811460 -0.257153 1.911113 -10.411984 -2.580400 9.982600 -28.920300 1.823891 -1.174233 -4.163398 3.825167 -0.752983 1.371159 6.239110 -1.271887 21.445769 2.308200 0.239400 8.322600 -89.100855 -1.759490 28.615390 9.318234 -19.004647 -2.513045 0.498717 1.207436 24.547752 -7.125000 0.000000 0.000000 81.217671 -2.303714 -15.811506 -1.135544 15.383974 -2.219892 -0.392825 -1.887096 27.570107 7.125000 0.000000 0.000000 
8.629961 21.233531 16.191545 179.265409 -1.211291 -162.814951 -25.862228 -9.524245 -17.743163 10.325292 17.783923 60.955172 0.104420 2.383913 -4.723495 10.114700 -17.473900 -59.871100 28.774024 18.369104 -31.807299 -0.811025 -8.574386 22.763675 -0.264119 2.614126 -10.687124 -2.512700 9.861000 -28.527800 1.864791 -1.280034 -4.212902 3.990978 -0.813652 1.441480 6.109721 -0.990000 21.699832 2.339400 0.338300 8.601800 -89.382614 -0.885365 27.282487 9.510408 -19.254318 -2.580459 0.470664 1.217518 23.820687 -7.125000 0.000000 0.000000 80.591604 -0.605167 -11.177312 -2.366662 17.567586 -2.541997 -0.222741 -1.943372 23.739938 7.125000 0.000000 0.000000 
8.668696 21.326023 15.891429 179.147816 -1.390750 -162.724211 -25.502728 -10.614987 -20.868997 10.436778 17.987052 61.366176 0.114548 0.464260 -5.762184 10.162300 -17.500100 -60.029400 29.391896 17.213042 -30.062854 -0.728504 -8.053656 21.636530 -0.271866 3.189971 -10.909396 -2.676700 10.152400 -29.471600 1.742954 -0.931895 -4.321355 3.662734 -0.600467 1.166225 6.097539 -1.442885 21.741742 2.236800 0.182900 8.579200 -88.867874 0.408584 27.800118 9.733886 -19.560941 -2.632726 0.418757 1.235486 22.937354 -7.125000 0.000000 0.000000 80.800828 0.156353 -7.155825 -4.083121 20.273093 -3.037746 -0.054368 -2.061090 18.933347 7.125000 0.000000 0.000000 
8.703676 21.402420 15.598932 178.867395 -1.582807 -162.800251 -25.353753 -12.062828 -23.840449 10.424316 18.133340 61.406444 0.144578 -0.752221 -7.127490 10.271500 -17.559700 -60.392100 29.833132 15.740632 -28.230863 -0.663741 -7.534273 20.577862 -0.312362 3.831273 -11.542887 -2.719600 10.226600 -29.713800 1.731798 -1.040752 -4.327740 3.786959 -0.670130 1.249946 6.098862 -1.378339 21.952011 2.353400 0.164000 8.865500 -88.951011 0.940714 27.062690 9.740831 -19.564142 -2.638870 0.394017 1.242791 22.745172 -7.125000 0.000000 0.000000 80.104536 1.523259 -2.159683 -6.056536 23.065908 -3.601086 0.203747 -2.096225 14.016541 7.125000 0.000000 0.000000 
8.745415 21.461649 15.314804 178.811174 -1.586470 -163.069943 -24.870071 -13.426914 -26.595881 10.348257 18.252781 61.269841 0.255815 -1.400598 -9.694284 10.303800 -17.577200 -60.498900 30.450453 14.705068 -26.217431 -0.614964 -7.103971 19.798244 -0.392706 4.331567 -12.503574 -2.539300 9.909000 -28.682500 1.687690 -0.830987 -4.321347 3.854692 -0.566050 1.202373 6.094868 -1.540294 21.924884 2.397500 0.059600 8.924200 -88.835013 1.679096 26.684859 9.727612 -19.555471 -2.640189 0.379402 1.248474 22.719457 -7.125000 0.000000 0.000000 79.551281 2.471126 1.970639 -8.276114 25.827938 -4.236152 0.472253 -2.094210 9.513110 7.125000 0.000000 0.000000 
8.794343 21.503281 15.030783 178.960915 -1.286427 -163.596275 -24.052367 -14.387397 -28.921123 10.091693 18.258043 60.549939 0.379696 -1.255634 -11.742797 10.257600 -17.552200 -60.346000 31.256272 14.275993 -23.903611 -0.573007 -6.730577 19.206568 -0.484538 4.600062 -13.387830 -2.371300 9.600100 -27.691300 1.631301 -0.432470 -4.266173 3.929161 -0.369901 1.123737 6.559543 -2.375851 21.648719 2.419600 -1.592000 8.866300 -88.625444 2.387600 26.377927 9.733964 -19.561084 -2.632403 0.370500 1.245185 22.576213 -7.125000 0.000000 0.000000 78.996902 3.534514 5.364105 -10.297411 28.131943 -4.847411 0.685934 -2.060424 5.555549 7.125000 0.000000 0.000000 
8.830825 21.532037 14.750947 179.335915 -0.891021 -164.207900 -22.954071 -15.345572 -30.938166 9.716132 18.173529 59.431833 0.520218 -1.007715 -13.737649 10.076800 -17.452800 -59.744700 32.240394 13.810415 -21.615736 -0.546049 -6.401112 18.730821 -0.567646 5.095275 -14.105361 -2.303700 9.472000 -27.283200 1.329065 0.793451 -4.283791 2.939155 0.291143 0.644822 6.445521 -3.438459 21.495467 2.071600 -2.028600 8.566600 -87.112741 3.498207 28.103531 9.692275 -19.506163 -2.579229 0.356027 1.241704 22.123526 -7.125000 0.000000 0.000000 79.638103 3.708703 6.791807 -12.419541 30.442855 -5.582795 0.803494 -2.104902 1.517511 7.125000 0.000000 0.000000 
